<svg width="293" height="118" viewBox="0 0 293 118" fill="none" xmlns="http://www.w3.org/2000/svg">
<path d="M15.7659 115.144C14.5759 114.589 13.3462 114.152 12.0769 113.835C10.8869 113.438 9.61757 112.962 8.2689 112.407C8.18957 111.534 8.18957 110.662 8.2689 109.789C8.34823 108.916 8.18957 108.044 7.7929 107.171C6.6029 106.616 5.4129 106.219 4.2229 105.981C3.0329 105.664 1.8429 105.188 0.652898 104.553C0.414898 92.3357 0.335565 80.158 0.414898 68.02C0.573565 55.882 0.573565 43.625 0.414898 31.249C1.44623 30.6143 2.59657 30.0987 3.8659 29.702C5.21457 29.3053 6.52357 28.869 7.7929 28.393L8.2689 27.679V18.278L8.7449 17.802C14.8536 16.612 21.2002 14.3907 27.7849 11.138C34.2902 7.88533 40.7559 7.36966 47.1819 9.59099C47.7372 9.98766 48.0942 10.2257 48.2529 10.305C48.4116 11.019 48.4512 11.733 48.3719 12.447C48.2926 13.161 48.3322 13.875 48.4909 14.589L48.9669 15.303C50.0776 15.779 51.2279 16.2153 52.4179 16.612C53.6872 17.0087 54.9169 17.445 56.1069 17.921C56.2656 21.491 56.3052 25.061 56.2259 28.631C56.1466 32.201 56.1466 35.771 56.2259 39.341L55.5119 40.174C53.4492 40.7293 51.4262 41.3243 49.4429 41.959C47.4596 42.5143 45.4762 43.1887 43.4929 43.982C39.6849 45.4893 35.7976 44.9737 31.8309 42.435C31.5929 39.9757 31.5532 37.556 31.7119 35.176C31.8706 32.7167 31.7516 30.2177 31.3549 27.679C29.1336 28.155 27.1899 28.75 25.5239 29.464C25.1272 40.412 25.0082 51.241 25.1669 61.951C25.3256 72.661 25.2859 83.49 25.0479 94.438L25.6429 95.033C26.4362 94.9537 27.2296 94.7157 28.0229 94.319C28.8956 93.9223 29.7286 93.6447 30.5219 93.486L30.8789 93.367C30.8789 93.367 30.9186 93.2877 30.9979 93.129C31.1566 92.9703 31.3946 92.6927 31.7119 92.296V72.78L32.0689 72.304C34.0522 71.6693 35.9959 71.0347 37.8999 70.4C39.8832 69.7653 41.8666 69.0513 43.8499 68.258C47.8959 66.7507 51.9022 67.187 55.8689 69.567L56.2259 70.162V91.463C56.3052 91.3837 55.8689 91.6613 54.9169 92.296C54.5996 92.1373 54.2029 92.2167 53.7269 92.534C53.2509 92.8513 52.8146 93.01 52.4179 93.01C51.5452 93.3273 50.7519 93.5653 50.0379 93.724C49.3239 93.8827 48.8082 94.2397 48.4909 94.795V104.077L48.0149 104.672C42.6996 106.497 37.3842 108.361 32.0689 110.265C26.8329 112.09 21.4779 113.716 16.0039 115.144H15.7659ZM15.1709 113.121L15.7659 112.764C15.6866 111.574 15.6866 110.384 15.7659 109.194C15.8452 108.004 15.7659 106.814 15.5279 105.624H15.0519C14.6552 105.941 14.2982 106.1 13.9809 106.1C13.7429 106.1 13.4652 106.179 13.1479 106.338C11.7199 106.576 10.6092 107.052 9.8159 107.766C9.89523 108.321 9.89523 108.877 9.8159 109.432C9.73657 109.987 9.8159 110.543 10.0539 111.098C10.9266 111.495 11.7992 111.852 12.6719 112.169C13.5446 112.486 14.3776 112.804 15.1709 113.121ZM7.4359 105.267L8.1499 104.91C7.9119 103.561 7.87223 102.252 8.0309 100.983C8.18957 99.7137 8.11023 98.4047 7.7929 97.056C6.8409 96.7387 5.92857 96.4213 5.0559 96.104C4.18323 95.7867 3.35023 95.4297 2.5569 95.033L1.9619 95.39V102.887L2.5569 103.601C4.38157 104.077 6.0079 104.632 7.4359 105.267ZM25.5239 100.031H25.8809C26.4362 99.7137 27.0312 99.5153 27.6659 99.436C28.3006 99.2773 28.7766 99.0393 29.0939 98.722C28.3799 98.5633 27.7056 98.365 27.0709 98.127C26.4362 97.889 25.8412 97.8493 25.2859 98.008C25.3652 98.4047 25.3652 98.8013 25.2859 99.198C25.2066 99.5153 25.2859 99.793 25.5239 100.031ZM32.1879 98.008C32.7432 97.532 33.4572 97.2543 34.3299 97.175C35.2026 97.0163 35.9959 96.7387 36.7099 96.342C35.9959 95.866 35.3216 95.5883 34.6869 95.509C34.1316 95.4297 33.5366 95.1917 32.9019 94.795C31.4739 94.795 29.7286 95.3503 27.6659 96.461C29.2526 96.699 30.7599 97.2147 32.1879 98.008ZM7.4359 94.795L8.1499 94.676C7.9119 93.248 7.87223 91.8597 8.0309 90.511C8.2689 89.083 8.1499 87.7343 7.6739 86.465C6.56323 86.227 5.57157 85.9097 4.6989 85.513C3.82623 85.1163 2.9139 84.918 1.9619 84.918V92.415L2.5569 93.129C3.35023 93.5257 4.14357 93.843 4.9369 94.081C5.80957 94.2397 6.64257 94.4777 7.4359 94.795ZM38.6139 94.795L39.0899 94.676C38.9312 93.248 38.9312 91.8597 39.0899 90.511C39.2486 89.083 39.1296 87.7343 38.7329 86.465C37.9396 86.227 37.0669 85.9493 36.1149 85.632C35.1629 85.2353 34.4092 84.9577 33.8539 84.799L33.1399 84.918V92.415L33.7349 93.129C34.5282 93.5257 35.3216 93.843 36.1149 94.081C36.9876 94.2397 37.8206 94.4777 38.6139 94.795ZM7.4359 84.561L8.1499 84.204V77.064L7.6739 76.112C6.56323 75.874 5.49223 75.5567 4.4609 75.16C3.5089 74.684 2.6759 74.446 1.9619 74.446V81.943L2.5569 82.657C3.35023 83.0537 4.14357 83.371 4.9369 83.609C5.80957 83.7677 6.64257 84.085 7.4359 84.561ZM38.6139 84.561L39.0899 84.204C39.0106 82.776 39.0106 81.4273 39.0899 80.158C39.1692 78.8887 39.1296 77.6193 38.9709 76.35C38.0189 75.874 37.1066 75.517 36.2339 75.279C35.3612 75.041 34.5282 74.7633 33.7349 74.446L33.1399 74.684V82.181L33.7349 82.895C34.5282 83.0537 35.3216 83.3313 36.1149 83.728C36.9876 84.0453 37.8206 84.323 38.6139 84.561ZM40.0419 74.684C40.6766 74.1287 41.4302 73.7717 42.3029 73.613C43.1756 73.4543 44.0086 73.256 44.8019 73.018C44.0086 72.7007 43.2946 72.4627 42.6599 72.304C42.1046 72.1453 41.4699 71.8677 40.7559 71.471C39.9626 71.6297 39.0502 71.828 38.0189 72.066C37.0669 72.2247 36.2339 72.5817 35.5199 73.137C37.0272 73.375 38.5346 73.8907 40.0419 74.684ZM7.4359 74.089L8.1499 73.851V66.473C7.75323 65.997 7.4359 65.6797 7.1979 65.521C6.40457 65.4417 5.57157 65.2433 4.6989 64.926C3.90557 64.5293 3.2709 64.212 2.7949 63.974L1.9619 64.212V71.709L2.5569 72.423C3.35023 72.7403 4.14357 73.018 4.9369 73.256C5.80957 73.494 6.64257 73.7717 7.4359 74.089ZM47.6579 72.066C48.5306 71.59 49.3239 71.2727 50.0379 71.114C50.8312 70.9553 51.6246 70.7173 52.4179 70.4C49.4032 68.8133 46.3489 68.8133 43.2549 70.4C43.9689 70.7173 44.7226 70.9553 45.5159 71.114C46.3092 71.2727 47.0232 71.59 47.6579 72.066ZM7.4359 63.855L8.1499 63.498C7.99123 62.07 7.95157 60.7213 8.0309 59.452C8.11023 58.1827 8.07057 56.9133 7.9119 55.644C6.7219 55.0887 5.61123 54.6523 4.5799 54.335C3.6279 54.0177 2.75523 53.8193 1.9619 53.74V61.237L2.5569 61.951C3.35023 62.3477 4.14357 62.665 4.9369 62.903C5.80957 63.0617 6.64257 63.379 7.4359 63.855ZM7.4359 53.383L8.1499 53.264C7.9119 51.836 7.87223 50.4477 8.0309 49.099C8.2689 47.671 8.1499 46.3223 7.6739 45.053C6.80123 44.6563 5.92857 44.3787 5.0559 44.22C4.26257 43.982 3.5089 43.7043 2.7949 43.387L1.9619 43.506V51.003C2.12057 51.1617 2.27923 51.3203 2.4379 51.479C2.59657 51.6377 2.75523 51.7963 2.9139 51.955C3.6279 52.0343 4.38157 52.2327 5.1749 52.55C5.96823 52.8673 6.7219 53.145 7.4359 53.383ZM7.4359 43.149L8.1499 42.792V35.295C7.75323 34.819 7.4359 34.5017 7.1979 34.343C6.2459 34.2637 5.2939 34.0257 4.3419 33.629C3.46923 33.2323 2.6759 33.034 1.9619 33.034V40.531L2.5569 41.245C3.35023 41.6417 4.14357 41.959 4.9369 42.197C5.80957 42.3557 6.64257 42.673 7.4359 43.149ZM38.6139 43.149L39.0899 42.792C38.9312 41.364 38.9312 39.9757 39.0899 38.627C39.3279 37.199 39.1692 35.8503 38.6139 34.581C37.7412 34.2637 36.8686 34.0257 35.9959 33.867C35.2026 33.629 34.4489 33.3117 33.7349 32.915L33.1399 33.272C33.2192 34.7 33.2192 36.0883 33.1399 37.437C33.0606 38.7063 33.1399 39.936 33.3779 41.126C35.2026 41.6813 36.9479 42.3557 38.6139 43.149ZM8.8639 33.272L9.1019 33.034C9.89523 32.558 10.6489 32.2803 11.3629 32.201C12.0769 32.0423 12.7909 31.844 13.5049 31.606L13.3859 31.249C12.0372 30.9317 10.7282 30.654 9.4589 30.416C8.2689 30.0987 7.0789 30.2573 5.8889 30.892C5.57157 31.13 5.25423 31.2887 4.9369 31.368C4.61957 31.368 4.4609 31.487 4.4609 31.725C5.25423 31.725 6.0079 31.9233 6.7219 32.32C7.4359 32.6373 8.1499 32.9547 8.8639 33.272ZM38.6139 32.677L39.0899 32.32C39.0106 31.13 39.0106 29.94 39.0899 28.75C39.1692 27.56 39.1296 26.37 38.9709 25.18H38.3759C37.4239 25.5767 36.4719 25.9337 35.5199 26.251C34.5679 26.5683 33.7746 26.8857 33.1399 27.203V30.297C33.5366 30.8523 33.8539 31.1697 34.0919 31.249C34.8852 31.3283 35.6389 31.5267 36.3529 31.844C37.0669 32.1613 37.8206 32.439 38.6139 32.677ZM15.1709 30.059L15.7659 29.702V22.681L15.1709 21.61C14.3776 21.372 13.5446 21.0943 12.6719 20.777C11.8786 20.4597 11.1249 20.182 10.4109 19.944L9.8159 20.182V27.679L10.4109 28.393C11.2042 28.7897 11.9976 29.0673 12.7909 29.226C13.6636 29.3053 14.4569 29.583 15.1709 30.059ZM16.7179 20.182C17.4319 19.706 18.1856 19.3887 18.9789 19.23C19.8516 18.992 20.6052 18.6747 21.2399 18.278C17.8286 17.088 14.7742 17.1673 12.0769 18.516C12.8702 18.9127 13.6239 19.1903 14.3379 19.349C15.1312 19.5077 15.9246 19.7853 16.7179 20.182ZM48.9669 19.825C49.6016 19.587 50.1569 19.3887 50.6329 19.23C51.1882 18.992 51.7039 18.754 52.1799 18.516C51.7039 18.278 51.1882 18.0797 50.6329 17.921C50.1569 17.7623 49.7602 17.564 49.4429 17.326L48.6099 17.564C48.6892 17.9607 48.6892 18.397 48.6099 18.873C48.5306 19.2697 48.6496 19.587 48.9669 19.825ZM24.3339 17.564C25.7619 17.088 27.3486 16.5327 29.0939 15.898C25.6826 14.6287 22.6282 14.6287 19.9309 15.898C20.7242 16.2153 21.4779 16.5327 22.1919 16.85C22.9059 17.088 23.6199 17.326 24.3339 17.564ZM32.1879 14.946C32.9019 14.47 33.6556 14.1923 34.4489 14.113C35.3216 13.9543 36.0752 13.5973 36.7099 13.042C35.9166 12.9627 35.1232 12.7643 34.3299 12.447C33.5366 12.1297 32.8226 11.8917 32.1879 11.733C30.7599 12.5263 29.3716 12.9627 28.0229 13.042L27.6659 13.518C28.5386 13.5973 29.3319 13.8353 30.0459 14.232C30.7599 14.5493 31.4739 14.7873 32.1879 14.946ZM39.9229 12.328H40.0419C40.7559 11.852 41.5096 11.5743 42.3029 11.495C43.1756 11.4157 43.9292 11.0983 44.5639 10.543C42.6599 10.1463 41.3906 9.74966 40.7559 9.35299C38.7726 9.591 36.9876 10.1067 35.4009 10.9C36.5116 11.138 38.0189 11.614 39.9229 12.328ZM66.7118 118C65.4425 117.286 64.1732 116.85 62.9038 116.691C61.7138 116.453 60.4842 115.977 59.2148 115.263V21.134C66.9895 19.3093 74.8435 16.4137 82.7768 12.447C90.8688 8.401 98.8815 7.687 106.815 10.305L107.41 11.138C107.41 11.852 107.37 12.6453 107.291 13.518C107.212 14.3113 107.41 15.1047 107.886 15.898C108.917 16.2153 109.988 16.5327 111.099 16.85C112.289 17.1673 113.479 17.6037 114.669 18.159L115.026 18.754V41.84C114.867 43.6647 114.828 45.2513 114.907 46.6C115.066 47.8693 114.986 49.218 114.669 50.646L113.717 51.122C112.765 51.122 111.773 51.36 110.742 51.836C109.711 52.312 108.719 52.7483 107.767 53.145C107.37 55.3663 107.251 57.6273 107.41 59.928C107.569 62.2287 107.569 64.5293 107.41 66.83L107.886 67.663C108.917 68.0597 109.988 68.4167 111.099 68.734C112.289 69.0513 113.479 69.4877 114.669 70.043L115.026 70.638V101.935L114.669 102.53C110.623 103.641 106.617 104.95 102.65 106.457C98.6832 107.885 94.7165 107.449 90.7498 105.148L90.3928 104.553V79.92L89.9168 79.206C89.2822 78.6507 88.4888 78.3333 87.5368 78.254C86.6642 78.0953 85.7518 77.7383 84.7998 77.183L84.2048 77.302C84.0462 83.0933 83.9668 88.9243 83.9668 94.795C84.0462 100.586 84.0462 106.457 83.9668 112.407C81.1902 113.597 78.4135 114.668 75.6368 115.62C72.8602 116.572 70.0042 117.365 67.0688 118H66.7118ZM66.1168 115.977L66.8308 115.382C66.6722 113.954 66.6325 112.645 66.7118 111.455C66.8705 110.186 66.7912 108.916 66.4738 107.647C65.4425 107.409 64.4905 107.052 63.6178 106.576C62.7452 106.1 61.8328 105.862 60.8808 105.862C61.0395 107.29 61.0395 108.718 60.8808 110.146C60.8015 111.495 60.9205 112.804 61.2378 114.073C62.0312 114.39 62.8245 114.668 63.6178 114.906C64.4905 115.144 65.3235 115.501 66.1168 115.977ZM66.1168 105.505L66.8308 105.148C66.6722 103.799 66.6325 102.49 66.7118 101.221C66.8705 99.8723 66.7912 98.5633 66.4738 97.294C65.6012 97.056 64.7682 96.7783 63.9748 96.461C63.2608 96.0643 62.5072 95.7867 61.7138 95.628H60.8808V103.482C61.5948 103.958 62.4278 104.315 63.3798 104.553C64.3318 104.712 65.2442 105.029 66.1168 105.505ZM97.2948 105.505L98.0088 105.386C97.8502 103.958 97.8502 102.57 98.0088 101.221C98.1675 99.793 97.9692 98.4047 97.4138 97.056C96.3825 96.8973 95.4305 96.6197 94.5578 96.223C93.6852 95.8263 92.7728 95.628 91.8208 95.628V103.125L92.4158 103.839C93.2092 104.236 94.0025 104.553 94.7958 104.791C95.6685 104.95 96.5015 105.188 97.2948 105.505ZM66.1168 95.271L66.8308 95.033C66.6722 93.6843 66.6325 92.3357 66.7118 90.987C66.8705 89.559 66.7912 88.1707 66.4738 86.822C65.4425 86.584 64.4905 86.3063 63.6178 85.989C62.7452 85.5923 61.8328 85.3147 60.8808 85.156V93.01C61.5948 93.486 62.4278 93.843 63.3798 94.081C64.3318 94.319 65.2442 94.7157 66.1168 95.271ZM97.2948 95.271L98.0088 94.914C97.8502 93.486 97.8502 92.0977 98.0088 90.749C98.1675 89.321 97.9692 87.9723 97.4138 86.703C96.3825 86.465 95.3512 86.1477 94.3198 85.751C93.3678 85.3543 92.5348 85.156 91.8208 85.156V92.653L92.4158 93.367C93.2092 93.7637 94.0025 94.081 94.7958 94.319C95.6685 94.4777 96.5015 94.795 97.2948 95.271ZM66.1168 84.799L66.8308 84.442C66.6722 83.014 66.6325 81.6653 66.7118 80.396C66.8705 79.1267 66.7912 77.8573 66.4738 76.588C65.4425 76.2707 64.4905 75.9137 63.6178 75.517C62.7452 75.041 61.8328 74.8427 60.8808 74.922V82.776C61.5948 83.3313 62.4278 83.6883 63.3798 83.847C64.3318 83.9263 65.2442 84.2437 66.1168 84.799ZM97.2948 84.799L98.0088 84.442C97.9295 83.252 97.9295 82.1017 98.0088 80.991C98.0882 79.801 98.0485 78.6507 97.8898 77.54L97.2948 77.302C96.4222 77.778 95.5495 78.135 94.6768 78.373C93.8835 78.5317 93.1298 78.73 92.4158 78.968L91.8208 79.801V82.419C92.1382 82.895 92.4555 83.1727 92.7728 83.252C93.3282 83.3313 93.9628 83.5297 94.6768 83.847C95.3908 84.085 96.2635 84.4023 97.2948 84.799ZM89.5598 77.183L90.1548 76.588C90.0755 75.398 90.0755 74.2477 90.1548 73.137C90.2342 71.947 90.1548 70.7967 89.9168 69.686L89.5598 69.448C88.7665 69.924 87.9335 70.2413 87.0608 70.4C86.2675 70.5587 85.5138 70.7967 84.7998 71.114L84.2048 71.709C84.2842 72.3437 84.2842 72.9387 84.2048 73.494C84.1255 73.97 84.1652 74.4857 84.3238 75.041C85.2758 75.4377 86.1882 75.7947 87.0608 76.112C87.9335 76.4293 88.7665 76.7863 89.5598 77.183ZM66.2358 74.565L66.8308 74.208C66.6722 72.78 66.6722 71.3917 66.8308 70.043C66.9895 68.615 66.7912 67.2267 66.2358 65.878C65.4425 65.7987 64.6095 65.6003 63.7368 65.283C62.9435 64.9657 62.1898 64.688 61.4758 64.45L60.8808 64.688C60.9602 66.0367 60.9602 67.3853 60.8808 68.734C60.8015 70.0827 60.8808 71.352 61.1188 72.542C61.9915 72.8593 62.8642 73.1767 63.7368 73.494C64.6095 73.8113 65.4425 74.1683 66.2358 74.565ZM107.767 71.947H107.886C108.283 71.7883 108.719 71.59 109.195 71.352C109.75 71.114 110.385 70.876 111.099 70.638C110.623 70.4 110.147 70.281 109.671 70.281C109.195 70.2017 108.759 70.0033 108.362 69.686L107.529 69.805C107.608 70.2017 107.608 70.5983 107.529 70.995C107.45 71.3123 107.529 71.6297 107.767 71.947ZM66.1168 64.093L66.8308 63.498V56.358L66.2358 55.644C65.4425 55.3267 64.6095 55.049 63.7368 54.811C62.9435 54.573 62.1898 54.2953 61.4758 53.978L60.8808 54.216V62.07C61.5948 62.6253 62.4278 62.9823 63.3798 63.141C64.3318 63.2203 65.2442 63.5377 66.1168 64.093ZM84.3238 58.857H84.5618C85.1172 58.619 85.6725 58.4207 86.2278 58.262C86.7832 58.1033 87.2988 57.9447 87.7748 57.786C87.2988 57.4687 86.7832 57.2703 86.2278 57.191C85.7518 57.0323 85.3155 56.834 84.9188 56.596L84.2048 56.834C84.2842 57.2307 84.2842 57.6273 84.2048 58.024C84.1255 58.3413 84.1652 58.619 84.3238 58.857ZM90.9878 56.834C91.7812 56.358 92.5348 56.0803 93.2488 56.001C94.0422 55.8423 94.8355 55.5647 95.6288 55.168C92.6142 53.5813 89.5598 53.5813 86.4658 55.168C87.2592 55.5647 88.0128 55.8423 88.7268 56.001C89.4408 56.1597 90.1945 56.4373 90.9878 56.834ZM66.2358 53.859L66.8308 53.502C66.6722 52.074 66.6722 50.6857 66.8308 49.337C66.9895 47.909 66.7912 46.5207 66.2358 45.172C65.4425 45.0927 64.6095 44.8943 63.7368 44.577C62.9435 44.1803 62.1898 43.9027 61.4758 43.744L60.8808 43.863C60.9602 45.291 60.9602 46.6793 60.8808 48.028C60.8015 49.3767 60.8808 50.6063 61.1188 51.717C61.9915 52.1137 62.8642 52.5103 63.7368 52.907C64.6095 53.2243 65.4425 53.5417 66.2358 53.859ZM84.3238 53.859C85.2758 53.383 86.1882 53.0657 87.0608 52.907C87.9335 52.669 88.7665 52.3517 89.5598 51.955L90.1548 51.122C90.0755 47.2347 90.0755 43.4267 90.1548 39.698C90.2342 35.89 90.1548 32.082 89.9168 28.274L89.5598 28.036C88.7665 28.4327 87.9335 28.75 87.0608 28.988C86.2675 29.226 85.5138 29.464 84.7998 29.702L84.2048 30.297C84.2842 34.343 84.2842 38.3097 84.2048 42.197C84.1255 46.0843 84.1652 49.9717 84.3238 53.859ZM97.2948 53.859L98.0088 53.502C97.8502 52.074 97.8502 50.6857 98.0088 49.337C98.1675 47.909 97.9692 46.5207 97.4138 45.172C96.3825 45.0927 95.3512 44.8547 94.3198 44.458C93.3678 43.982 92.5348 43.744 91.8208 43.744V51.122L92.4158 51.955C93.2092 52.3517 94.0025 52.669 94.7958 52.907C95.6685 53.0657 96.5015 53.383 97.2948 53.859ZM66.1168 43.387L66.8308 43.03C66.6722 41.602 66.6325 40.2533 66.7118 38.984C66.8705 37.7147 66.7912 36.4453 66.4738 35.176C65.4425 34.938 64.4905 34.581 63.6178 34.105C62.7452 33.5497 61.8328 33.272 60.8808 33.272V41.126C61.5948 41.7607 62.4278 42.1573 63.3798 42.316C64.3318 42.4747 65.2442 42.8317 66.1168 43.387ZM97.2948 43.387L98.0088 43.03C97.8502 41.602 97.8502 40.2533 98.0088 38.984C98.1675 37.7147 98.0485 36.4453 97.6518 35.176C96.6998 34.7793 95.7875 34.462 94.9148 34.224C94.0422 33.9067 93.2092 33.5497 92.4158 33.153L91.8208 33.51V40.888C92.2175 41.4433 92.5348 41.7607 92.7728 41.84C93.9628 41.9193 95.4702 42.435 97.2948 43.387ZM66.2358 33.153L66.8308 32.796C66.6722 31.368 66.6722 29.9797 66.8308 28.631C66.9895 27.203 66.7912 25.8147 66.2358 24.466C65.4425 24.1487 64.6095 23.9107 63.7368 23.752C62.9435 23.5933 62.1898 23.3553 61.4758 23.038L60.8808 23.276C60.9602 24.6247 60.9602 25.9733 60.8808 27.322C60.8015 28.5913 60.8808 29.8607 61.1188 31.13C61.9915 31.4473 62.8642 31.7647 63.7368 32.082C64.6095 32.3993 65.4425 32.7563 66.2358 33.153ZM97.4138 33.153L98.0088 32.558V26.251L97.4138 25.418C96.5412 25.894 95.5495 26.251 94.4388 26.489C93.4075 26.6477 92.5348 27.0443 91.8208 27.679V30.654C92.6935 31.368 93.6455 31.844 94.6768 32.082C95.7082 32.32 96.6205 32.677 97.4138 33.153ZM67.7828 23.276C68.4175 22.7207 69.1315 22.3637 69.9248 22.205C70.7975 21.967 71.5908 21.729 72.3048 21.491L72.0668 21.134C71.3528 21.0547 70.5992 20.8563 69.8058 20.539C69.0125 20.2217 68.2588 19.9837 67.5448 19.825C66.7515 20.301 65.9185 20.6183 65.0458 20.777C64.1732 20.9357 63.4592 21.1737 62.9038 21.491C63.7765 21.6497 64.6095 21.9273 65.4028 22.324C66.1962 22.6413 66.9895 22.9587 67.7828 23.276ZM75.3988 20.539C76.1128 19.9837 76.9062 19.6267 77.7788 19.468C78.7308 19.3093 79.5242 19.0713 80.1588 18.754C76.1922 17.326 73.1378 17.3657 70.9958 18.873C71.6305 19.0317 72.3048 19.2697 73.0188 19.587C73.7328 19.825 74.5262 20.1423 75.3988 20.539ZM107.767 20.063C108.402 19.587 108.997 19.349 109.552 19.349C110.107 19.349 110.702 19.1903 111.337 18.873C110.94 18.5557 110.425 18.397 109.79 18.397C109.235 18.397 108.759 18.1987 108.362 17.802L107.529 17.921C107.608 18.397 107.608 18.7937 107.529 19.111C107.45 19.4283 107.529 19.7457 107.767 20.063ZM83.2528 17.921C83.8875 17.3657 84.6412 17.0483 85.5138 16.969C86.3865 16.8103 87.1798 16.612 87.8938 16.374C87.1798 15.9773 86.5055 15.7393 85.8708 15.66C85.3155 15.5013 84.6808 15.2237 83.9668 14.827C81.6662 15.065 79.9605 15.6203 78.8498 16.493C79.9605 16.5723 81.4282 17.0483 83.2528 17.921ZM91.1068 15.422C91.7415 14.8667 92.4555 14.5097 93.2488 14.351C94.1215 14.1923 94.9148 13.994 95.6288 13.756C91.8208 12.09 88.8062 12.1297 86.5848 13.875C87.4575 13.9543 88.2112 14.1527 88.8458 14.47C89.5598 14.7873 90.3135 15.1047 91.1068 15.422ZM98.8418 12.804C99.4765 12.1693 100.191 11.852 100.984 11.852C101.777 11.7727 102.531 11.5347 103.245 11.138C99.9922 9.31333 97.0172 9.35299 94.3198 11.257C94.9545 11.3363 95.6288 11.5347 96.3428 11.852C97.1362 12.09 97.9692 12.4073 98.8418 12.804ZM125.515 118C124.245 117.365 122.976 116.929 121.707 116.691C120.517 116.453 119.287 115.937 118.018 115.144V41.602C119.128 41.0467 120.279 40.65 121.469 40.412C122.659 40.174 123.888 39.7773 125.158 39.222L125.872 38.151V29.107L126.229 28.631C127.022 28.2343 127.974 27.8773 129.085 27.56C130.195 27.1633 131.465 26.7667 132.893 26.37C132.893 26.37 132.932 26.2907 133.012 26.132C133.17 25.9733 133.408 25.6957 133.726 25.299V15.898C133.964 15.898 134.122 15.8187 134.202 15.66C134.36 15.422 134.638 15.184 135.035 14.946C136.939 14.5493 138.843 14.0733 140.747 13.518C142.651 12.8833 144.555 12.209 146.459 11.495C150.346 10.067 154.233 10.543 158.121 12.923C158.279 13.5577 158.319 14.3113 158.24 15.184C158.16 15.9773 158.2 16.6913 158.359 17.326L158.716 18.159C159.668 18.7937 160.778 19.23 162.048 19.468C163.317 19.706 164.547 20.1423 165.737 20.777L166.213 21.253V25.418L166.689 26.251C167.72 26.5683 168.831 26.9253 170.021 27.322C171.211 27.6393 172.361 28.0757 173.472 28.631L173.829 29.107V49.337C173.749 58.4603 173.749 67.3853 173.829 76.112C173.908 84.8387 173.789 93.6447 173.472 102.53L172.52 103.125C168.791 103.918 164.943 105.108 160.977 106.695C157.169 108.123 153.321 107.528 149.434 104.91C149.116 100.785 149.037 96.6197 149.196 92.415C149.434 88.2103 149.315 83.966 148.839 79.682C147.887 79.8407 146.974 80.1183 146.102 80.515C145.229 80.8323 144.277 81.1893 143.246 81.586C142.849 86.6633 142.73 91.7803 142.889 96.937C143.047 102.014 143.008 107.092 142.77 112.169L142.532 112.764C139.676 113.716 136.859 114.708 134.083 115.739C131.385 116.77 128.569 117.524 125.634 118H125.515ZM124.92 115.858L125.634 115.739C125.475 114.311 125.435 112.923 125.515 111.574C125.673 110.225 125.594 108.877 125.277 107.528C124.245 107.369 123.293 107.052 122.421 106.576C121.548 106.1 120.636 105.862 119.684 105.862C119.842 107.29 119.842 108.758 119.684 110.265C119.604 111.693 119.723 112.962 120.041 114.073C120.834 114.549 121.627 114.866 122.421 115.025C123.293 115.104 124.126 115.382 124.92 115.858ZM125.158 105.624L125.634 105.267C125.475 103.839 125.475 102.451 125.634 101.102C125.792 99.7533 125.634 98.4047 125.158 97.056C122.936 96.2627 121.31 95.7867 120.279 95.628L119.684 95.747C119.842 97.175 119.842 98.5633 119.684 99.912C119.604 101.181 119.684 102.411 119.922 103.601C120.794 103.998 121.667 104.355 122.54 104.672C123.412 104.989 124.285 105.307 125.158 105.624ZM156.217 105.624L156.812 105.148C156.653 103.72 156.653 102.371 156.812 101.102C156.97 99.8327 156.851 98.5633 156.455 97.294C155.503 96.8973 154.59 96.6197 153.718 96.461C152.924 96.223 152.091 95.866 151.219 95.39L150.624 95.747V103.244C151.496 103.879 152.448 104.355 153.48 104.672C154.511 104.91 155.423 105.227 156.217 105.624ZM124.92 95.271L125.634 95.033C125.475 93.605 125.435 92.2167 125.515 90.868C125.673 89.44 125.594 88.0913 125.277 86.822C124.245 86.6633 123.293 86.346 122.421 85.87C121.548 85.394 120.636 85.156 119.684 85.156V93.01C120.398 93.5653 121.231 93.962 122.183 94.2C123.135 94.3587 124.047 94.7157 124.92 95.271ZM156.098 95.271L156.812 94.676V87.536L156.217 86.822C155.423 86.4253 154.59 86.1477 153.718 85.989C152.924 85.751 152.171 85.4733 151.457 85.156L150.624 85.394C150.782 86.7427 150.782 88.0913 150.624 89.44C150.544 90.7093 150.624 91.939 150.862 93.129L151.576 93.724C152.21 93.8033 152.885 94.0017 153.599 94.319C154.392 94.557 155.225 94.8743 156.098 95.271ZM125.158 84.918H125.277C125.594 83.5693 125.713 82.2603 125.634 80.991C125.554 79.7217 125.554 78.4523 125.634 77.183L125.158 76.35C124.285 76.0327 123.412 75.7947 122.54 75.636C121.746 75.398 120.993 75.16 120.279 74.922L119.684 75.041C119.842 76.469 119.842 77.8573 119.684 79.206C119.604 80.4753 119.684 81.705 119.922 82.895C120.794 83.371 121.667 83.728 122.54 83.966C123.412 84.1247 124.285 84.442 125.158 84.918ZM156.217 84.918L156.812 84.442V78.016L156.217 77.302C155.344 77.778 154.392 78.135 153.361 78.373C152.329 78.5317 151.417 78.9283 150.624 79.563V82.538C151.496 83.1727 152.448 83.609 153.48 83.847C154.511 84.085 155.423 84.442 156.217 84.918ZM125.158 74.446L125.634 74.089V66.592L125.158 65.878C124.285 65.7987 123.412 65.5607 122.54 65.164C121.746 64.7673 120.993 64.5293 120.279 64.45L119.684 64.569C119.842 65.997 119.842 67.3853 119.684 68.734C119.604 70.0033 119.684 71.233 119.922 72.423C120.794 72.899 121.667 73.256 122.54 73.494C123.412 73.6527 124.285 73.97 125.158 74.446ZM143.246 69.329H143.365C143.92 68.9323 144.475 68.6943 145.031 68.615C145.586 68.4563 146.102 68.2977 146.578 68.139C146.102 67.901 145.586 67.7027 145.031 67.544C144.555 67.3853 144.118 67.2267 143.722 67.068L143.008 67.187C143.087 67.5837 143.087 67.9803 143.008 68.377C142.928 68.6943 143.008 69.0117 143.246 69.329ZM150.029 67.187C150.505 66.711 151.1 66.3937 151.814 66.235C152.607 66.0763 153.361 65.9177 154.075 65.759L154.432 65.402C152.924 64.926 151.377 64.6087 149.791 64.45C148.204 64.212 146.736 64.6483 145.388 65.759C146.26 65.8383 147.054 66.0367 147.768 66.354C148.482 66.6713 149.235 66.949 150.029 67.187ZM156.217 64.212L156.812 63.617C156.653 62.2683 156.653 60.9593 156.812 59.69C156.97 58.4207 156.851 57.1513 156.455 55.882C155.503 55.406 154.59 55.0887 153.718 54.93C152.924 54.692 152.091 54.3747 151.219 53.978L150.624 54.335V61.832C151.417 62.546 152.369 62.9823 153.48 63.141C154.67 63.2997 155.582 63.6567 156.217 64.212ZM124.92 63.974L125.634 63.617C125.475 62.2683 125.435 60.9593 125.515 59.69C125.673 58.4207 125.594 57.1513 125.277 55.882C124.245 55.4853 123.293 55.0887 122.421 54.692C121.548 54.2953 120.636 54.097 119.684 54.097V61.951C120.398 62.427 121.231 62.784 122.183 63.022C123.135 63.26 124.047 63.5773 124.92 63.974ZM143.246 63.974C144.277 63.6567 145.308 63.379 146.34 63.141C147.371 62.903 148.244 62.3873 148.958 61.594V38.746L148.601 38.27C147.569 38.746 146.617 39.1427 145.745 39.46C144.872 39.698 143.96 40.055 143.008 40.531C143.087 44.577 143.087 48.5437 143.008 52.431C142.928 56.3183 143.008 60.166 143.246 63.974ZM125.158 53.74L125.634 53.502V46.243L125.158 45.41C123.888 44.8547 122.262 44.2597 120.279 43.625L119.684 43.863V51.36L120.279 52.074C121.072 52.2327 121.865 52.5103 122.659 52.907C123.531 53.2243 124.364 53.502 125.158 53.74ZM156.098 53.74L156.812 53.264C156.653 51.836 156.653 50.4873 156.812 49.218C156.97 47.9487 156.851 46.6793 156.455 45.41C155.503 45.0133 154.59 44.7357 153.718 44.577C152.924 44.339 152.091 43.982 151.219 43.506L150.624 43.863C150.782 45.291 150.782 46.6793 150.624 48.028C150.544 49.2973 150.624 50.527 150.862 51.717C151.814 52.193 152.726 52.55 153.599 52.788C154.471 53.026 155.304 53.3433 156.098 53.74ZM126.586 43.863C127.141 43.4663 127.776 43.1887 128.49 43.03C129.283 42.792 130.037 42.554 130.751 42.316L131.108 42.078C129.6 41.602 128.053 41.2847 126.467 41.126C124.88 40.888 123.452 41.2847 122.183 42.316C122.976 42.4747 123.73 42.7127 124.444 43.03C125.158 43.3473 125.872 43.625 126.586 43.863ZM156.098 43.387L156.812 42.911C156.732 41.721 156.732 40.5707 156.812 39.46C156.891 38.3493 156.851 37.199 156.693 36.009L156.098 35.89C155.304 36.2867 154.471 36.604 153.599 36.842C152.805 37.08 152.012 37.318 151.219 37.556L150.624 38.27V40.888C151.02 41.4433 151.338 41.7607 151.576 41.84C152.766 41.9193 154.273 42.435 156.098 43.387ZM132.774 40.769L133.488 40.531C133.25 39.103 133.21 37.7147 133.369 36.366C133.607 34.938 133.448 33.5893 132.893 32.32C131.861 31.9233 130.909 31.606 130.037 31.368C129.164 31.0507 128.291 30.892 127.419 30.892V38.27C127.815 38.8253 128.093 39.1427 128.252 39.222C129.124 39.3013 129.878 39.5393 130.513 39.936C131.227 40.2533 131.98 40.531 132.774 40.769ZM134.202 30.892C134.995 30.4953 135.749 30.2177 136.463 30.059C137.256 29.821 138.01 29.5037 138.724 29.107C137.851 28.7897 137.018 28.5517 136.225 28.393C135.511 28.2343 134.797 27.9963 134.083 27.679C133.289 28.0757 132.456 28.393 131.584 28.631C130.79 28.7897 130.195 29.0277 129.799 29.345C130.592 29.4243 131.346 29.6623 132.06 30.059C132.774 30.3763 133.488 30.654 134.202 30.892ZM166.57 30.416H166.689C167.085 30.2573 167.522 30.0987 167.998 29.94C168.553 29.702 169.188 29.4243 169.902 29.107C169.426 28.869 168.95 28.75 168.474 28.75C167.998 28.6707 167.561 28.512 167.165 28.274L166.332 28.393C166.411 28.7897 166.411 29.1863 166.332 29.583C166.252 29.9003 166.332 30.178 166.57 30.416ZM140.628 27.917L141.223 27.441V20.42L140.628 19.468C138.168 18.6747 136.542 18.04 135.749 17.564L135.273 17.921V25.418L135.749 26.251C136.621 26.3303 137.454 26.5683 138.248 26.965C139.041 27.2823 139.834 27.5997 140.628 27.917ZM158.716 22.681H159.073C159.628 22.2843 160.183 22.0463 160.739 21.967C161.294 21.8877 161.73 21.6497 162.048 21.253C161.492 21.253 161.016 21.134 160.62 20.896C160.223 20.5787 159.787 20.42 159.311 20.42L158.478 20.539C158.557 20.9357 158.557 21.3323 158.478 21.729C158.398 22.0463 158.478 22.3637 158.716 22.681ZM142.056 17.921C142.69 17.445 143.444 17.1277 144.317 16.969C145.189 16.8103 146.022 16.5723 146.816 16.255C143.325 14.589 140.271 14.6287 137.653 16.374C138.922 16.612 140.39 17.1277 142.056 17.921ZM150.029 15.303C150.505 14.7477 151.219 14.47 152.171 14.47C153.202 14.3907 153.956 14.0733 154.432 13.518C152.845 13.042 151.298 12.7643 149.791 12.685C148.283 12.5263 146.776 12.8437 145.269 13.637C146.062 14.113 146.855 14.3907 147.649 14.47C148.442 14.5493 149.235 14.827 150.029 15.303ZM184.317 117.881C183.127 117.167 181.898 116.691 180.628 116.453C179.359 116.136 178.09 115.66 176.82 115.025V18.873C176.9 18.7937 177.019 18.6747 177.177 18.516C177.415 18.3573 177.733 18.159 178.129 17.921C182.81 15.541 187.887 15.66 193.361 18.278L193.956 19.23V23.038L194.551 23.871C195.662 24.347 196.812 24.7833 198.002 25.18C199.272 25.5767 200.501 26.013 201.691 26.489C201.929 27.0443 201.969 27.679 201.81 28.393C201.731 29.107 201.771 29.821 201.929 30.535L202.524 31.13C203.318 31.0507 204.111 30.8127 204.904 30.416C205.777 29.94 206.61 29.6623 207.403 29.583L207.879 29.345L208.593 28.274V18.992L209.069 18.516C210.101 18.04 211.172 17.6037 212.282 17.207C213.472 16.8103 214.662 16.4137 215.852 16.017L216.447 15.303V5.783L216.804 5.18799C222.437 2.33199 228.03 2.37166 233.583 5.307L233.821 5.902C233.742 22.086 233.742 38.151 233.821 54.097C233.901 69.9637 233.782 85.87 233.464 101.816L232.393 102.411C227.395 104.791 222.199 104.593 216.804 101.816L216.447 101.221V76.469L215.852 75.993C212.52 76.7863 209.03 77.9763 205.38 79.563C201.969 81.0703 198.478 80.7927 194.908 78.73L194.194 78.849C193.956 83.847 193.877 88.8847 193.956 93.962C194.036 98.96 194.036 103.958 193.956 108.956V114.549C193.718 115.104 193.322 115.501 192.766 115.739C191.497 115.739 190.148 116.136 188.72 116.929C187.372 117.643 186.063 117.96 184.793 117.881H184.317ZM183.841 115.739L184.555 115.382C184.397 113.954 184.397 112.605 184.555 111.336C184.714 110.067 184.635 108.718 184.317 107.29C183.286 106.814 182.334 106.457 181.461 106.219C180.589 105.981 179.756 105.664 178.962 105.267L178.367 105.624C178.447 107.052 178.447 108.44 178.367 109.789C178.288 111.138 178.328 112.407 178.486 113.597C179.438 114.073 180.351 114.43 181.223 114.668C182.096 114.906 182.969 115.263 183.841 115.739ZM183.841 105.029L184.555 104.791C184.397 103.442 184.397 102.054 184.555 100.626C184.793 99.198 184.635 97.8097 184.079 96.461C182.969 96.3023 181.937 96.0247 180.985 95.628C180.113 95.152 179.24 94.914 178.367 94.914V102.53L178.962 103.244C179.756 103.72 180.549 104.037 181.342 104.196C182.215 104.275 183.048 104.553 183.841 105.029ZM223.706 102.53L224.182 101.935C224.024 100.586 224.024 99.2773 224.182 98.008C224.341 96.6593 224.262 95.3107 223.944 93.962C222.913 93.486 221.961 93.1687 221.088 93.01C220.216 92.772 219.383 92.4547 218.589 92.058L217.994 92.415V100.15C218.708 100.864 219.66 101.3 220.85 101.459C222.04 101.618 222.992 101.975 223.706 102.53ZM183.841 94.557L184.555 93.962V86.703L183.841 85.751C182.969 85.5923 182.136 85.394 181.342 85.156C180.549 84.8387 179.756 84.4817 178.962 84.085L178.367 84.442C178.447 85.87 178.447 87.2583 178.367 88.607C178.288 89.9557 178.328 91.225 178.486 92.415C179.438 92.9703 180.351 93.367 181.223 93.605C182.096 93.7637 182.969 94.081 183.841 94.557ZM223.468 91.82L224.182 91.701C224.024 90.273 224.024 88.8847 224.182 87.536C224.341 86.108 224.262 84.68 223.944 83.252C222.913 82.9347 221.961 82.657 221.088 82.419C220.216 82.181 219.383 81.824 218.589 81.348L217.994 81.943V89.202L218.589 90.035C219.383 90.4317 220.176 90.7093 220.969 90.868C221.842 91.0267 222.675 91.344 223.468 91.82ZM183.841 83.847L184.555 83.49C184.397 82.062 184.397 80.7133 184.555 79.444C184.714 78.1747 184.635 76.8657 184.317 75.517C183.286 75.1203 182.334 74.7633 181.461 74.446C180.589 74.0493 179.756 73.7717 178.962 73.613L178.367 73.732V81.348C178.685 81.9033 179.002 82.2207 179.319 82.3C180.033 82.4587 180.787 82.6967 181.58 83.014C182.374 83.3313 183.127 83.609 183.841 83.847ZM223.468 81.11L224.182 80.991C224.024 79.563 224.024 78.1747 224.182 76.826C224.42 75.398 224.262 74.0097 223.706 72.661C222.834 72.2643 221.961 71.9867 221.088 71.828C220.216 71.59 219.462 71.2727 218.827 70.876L217.994 71.114V78.73C218.391 79.2853 218.708 79.6027 218.946 79.682C220.216 79.8407 221.723 80.3167 223.468 81.11ZM199.787 78.73L200.501 78.135C200.263 76.707 200.224 75.3583 200.382 74.089C200.541 72.8197 200.422 71.5107 200.025 70.162C199.073 69.686 198.161 69.3687 197.288 69.21C196.416 68.972 195.543 68.6547 194.67 68.258L194.194 68.615V76.231C194.908 77.0243 195.86 77.5003 197.05 77.659C198.24 77.8177 199.153 78.1747 199.787 78.73ZM183.841 73.375L184.555 73.018C184.397 71.59 184.397 70.162 184.555 68.734C184.793 67.306 184.635 65.9177 184.079 64.569C182.969 64.4103 181.898 64.1327 180.866 63.736C179.914 63.3393 179.081 63.141 178.367 63.141V70.757L178.962 71.471C179.756 71.8677 180.549 72.185 181.342 72.423C182.215 72.5817 183.048 72.899 183.841 73.375ZM223.468 70.757L224.182 70.4C224.024 68.972 224.024 67.544 224.182 66.116C224.42 64.688 224.262 63.2997 223.706 61.951C222.675 61.7923 221.644 61.5147 220.612 61.118C219.581 60.642 218.708 60.404 217.994 60.404V68.02C218.312 68.5753 218.629 68.8927 218.946 68.972C219.74 69.1307 220.493 69.4083 221.207 69.805C221.921 70.2017 222.675 70.519 223.468 70.757ZM199.668 68.02L200.501 67.901C200.263 66.473 200.224 65.045 200.382 63.617C200.541 62.189 200.422 60.8007 200.025 59.452C199.073 59.0553 198.161 58.7777 197.288 58.619C196.416 58.4603 195.543 58.1033 194.67 57.548L194.194 58.143V65.402L194.67 66.116C195.543 66.5127 196.376 66.83 197.169 67.068C198.042 67.2267 198.875 67.544 199.668 68.02ZM183.841 62.665L184.555 62.308C184.397 60.9593 184.397 59.6503 184.555 58.381C184.714 57.0323 184.635 55.6837 184.317 54.335C183.286 53.9383 182.334 53.5813 181.461 53.264C180.589 52.9467 179.756 52.6293 178.962 52.312L178.367 52.669V60.285C178.605 60.6817 178.923 60.9593 179.319 61.118C180.113 61.2767 180.866 61.5147 181.58 61.832C182.294 62.1493 183.048 62.427 183.841 62.665ZM223.468 60.047L224.182 59.809C224.024 58.4603 224.024 57.072 224.182 55.644C224.42 54.216 224.262 52.8277 223.706 51.479C222.834 51.1617 221.961 50.9237 221.088 50.765C220.216 50.527 219.462 50.2097 218.827 49.813L217.994 49.932V57.548L218.589 58.381C219.383 58.619 220.176 58.857 220.969 59.095C221.842 59.2537 222.675 59.571 223.468 60.047ZM199.668 57.429L200.501 56.953C200.343 55.763 200.303 54.6127 200.382 53.502C200.462 52.312 200.422 51.122 200.263 49.932L199.668 49.813C198.796 50.051 197.923 50.3683 197.05 50.765C196.257 51.1617 195.464 51.3997 194.67 51.479L194.194 52.312V54.93C194.432 55.406 194.75 55.7233 195.146 55.882C195.781 55.9613 196.455 56.1597 197.169 56.477C197.963 56.715 198.796 57.0323 199.668 57.429ZM184.079 52.312L184.555 51.717C184.397 50.289 184.397 48.9403 184.555 47.671C184.714 46.4017 184.635 45.053 184.317 43.625C183.286 43.149 182.334 42.8317 181.461 42.673C180.589 42.5143 179.756 42.197 178.962 41.721L178.367 42.197V49.813C179.161 50.527 180.073 51.003 181.104 51.241C182.215 51.479 183.207 51.836 184.079 52.312ZM223.468 49.575L224.182 49.218V42.316L223.944 41.721C222.358 42.3557 220.573 42.9507 218.589 43.506L217.994 44.22V46.957C218.391 47.5123 218.708 47.8297 218.946 47.909C219.74 47.9883 220.493 48.2263 221.207 48.623C221.921 48.9403 222.675 49.2577 223.468 49.575ZM183.841 41.602L184.555 41.126C184.397 39.7773 184.397 38.4683 184.555 37.199C184.714 35.8503 184.635 34.5017 184.317 33.153C183.286 32.8357 182.334 32.5183 181.461 32.201C180.589 31.8043 179.756 31.4473 178.962 31.13L178.367 31.487C178.447 32.915 178.447 34.3033 178.367 35.652C178.288 37.0007 178.328 38.27 178.486 39.46C179.438 39.936 180.351 40.293 181.223 40.531C182.096 40.769 182.969 41.126 183.841 41.602ZM202.286 36.128H202.762C203.318 35.8107 203.873 35.652 204.428 35.652C204.984 35.5727 205.42 35.3347 205.737 34.938C205.182 34.938 204.666 34.7793 204.19 34.462C203.794 34.0653 203.357 33.867 202.881 33.867L202.167 34.105C202.247 34.5017 202.207 34.8983 202.048 35.295C201.969 35.6917 202.048 35.9693 202.286 36.128ZM209.188 34.105C209.823 33.7083 210.577 33.4307 211.449 33.272C212.401 33.034 213.234 32.7563 213.948 32.439C210.458 30.6937 207.324 30.7333 204.547 32.558C205.182 32.6373 205.896 32.8357 206.689 33.153C207.483 33.391 208.316 33.7083 209.188 34.105ZM183.841 30.892L184.555 30.773C184.397 29.345 184.397 27.917 184.555 26.489C184.793 25.061 184.635 23.6727 184.079 22.324C182.969 22.1653 181.937 21.8877 180.985 21.491C180.113 21.015 179.24 20.777 178.367 20.777V28.393L178.962 29.107C179.756 29.5037 180.549 29.8607 181.342 30.178C182.215 30.416 183.048 30.654 183.841 30.892ZM215.495 30.892L216.328 30.773C216.09 29.345 216.051 27.917 216.209 26.489C216.368 25.061 216.17 23.6727 215.614 22.324C214.742 21.9273 213.869 21.6497 212.996 21.491C212.203 21.3323 211.449 21.0547 210.735 20.658L210.14 21.015V28.631C210.934 29.1863 211.806 29.6227 212.758 29.94C213.71 30.2573 214.623 30.5747 215.495 30.892ZM194.551 28.393C196.217 27.679 197.368 27.322 198.002 27.322C197.526 26.9253 197.011 26.6873 196.455 26.608C195.9 26.4493 195.384 26.2113 194.908 25.894L194.194 26.132C194.194 26.5287 194.155 26.965 194.075 27.441C193.996 27.917 194.155 28.2343 194.551 28.393ZM185.15 20.777C186.023 20.6183 186.856 20.3407 187.649 19.944C188.522 19.5473 189.355 19.23 190.148 18.992C189.276 18.9127 188.403 18.7143 187.53 18.397C186.737 18.0797 185.944 17.802 185.15 17.564C184.436 17.9607 183.643 18.278 182.77 18.516C181.977 18.754 181.263 18.9127 180.628 18.992C181.422 19.3093 182.175 19.6267 182.889 19.944C183.683 20.2613 184.436 20.539 185.15 20.777ZM217.042 20.777C217.915 20.6183 218.748 20.3407 219.541 19.944C220.414 19.5473 221.207 19.23 221.921 18.992C221.049 18.9127 220.176 18.7143 219.303 18.397C218.51 18.0797 217.756 17.802 217.042 17.564C215.535 18.3573 213.988 18.8333 212.401 18.992C213.274 19.3093 214.067 19.6267 214.781 19.944C215.495 20.2613 216.249 20.539 217.042 20.777ZM223.468 17.683L224.182 17.207V9.94799L223.706 9.115C222.834 8.79766 221.961 8.52 221.088 8.28199C220.216 8.04399 219.462 7.76633 218.827 7.449L217.994 7.68699V15.303C218.391 15.8583 218.708 16.1757 218.946 16.255C220.216 16.4137 221.723 16.8897 223.468 17.683ZM225.015 7.68699C225.888 7.05233 226.721 6.69533 227.514 6.61599C228.308 6.53666 229.061 6.29866 229.775 5.902C229.141 5.58466 228.387 5.30699 227.514 5.06899C226.721 4.831 225.888 4.593 225.015 4.35499C224.222 4.593 223.429 4.87066 222.635 5.18799C221.842 5.50533 221.128 5.74333 220.493 5.902C221.207 6.29866 221.961 6.616 222.754 6.854C223.548 7.01266 224.301 7.29033 225.015 7.68699ZM252.255 115.382C249.478 114.192 246.979 113.24 244.758 112.526C244.679 111.653 244.679 110.82 244.758 110.027C244.837 109.154 244.679 108.242 244.282 107.29C243.092 106.735 241.902 106.338 240.712 106.1C239.522 105.862 238.332 105.386 237.142 104.672C236.904 92.4547 236.825 80.277 236.904 68.139C237.063 56.001 237.102 43.7043 237.023 31.249C239.244 29.9797 241.426 29.1863 243.568 28.869L244.282 28.512L244.758 27.798V18.516L245.234 17.921C251.898 16.731 258.443 14.4303 264.869 11.019C271.533 7.52833 278.157 7.25066 284.742 10.186C284.901 10.9 284.94 11.6537 284.861 12.447C284.782 13.2403 284.821 13.994 284.98 14.708L285.456 15.422C286.567 15.9773 287.717 16.4533 288.907 16.85C290.176 17.1673 291.406 17.564 292.596 18.04C292.755 21.848 292.794 25.5767 292.715 29.226C292.636 32.796 292.675 36.485 292.834 40.293C292.675 49.1783 292.636 57.8653 292.715 66.354C292.874 74.8427 292.755 83.371 292.358 91.939C290.851 92.415 288.55 93.248 285.456 94.438L284.98 95.152V104.434C284.663 104.434 284.425 104.553 284.266 104.791C284.187 105.029 283.988 105.227 283.671 105.386C278.594 106.735 273.477 108.361 268.32 110.265C263.243 112.169 258.165 113.795 253.088 115.144L252.255 115.382ZM251.898 113.24L252.493 112.645C252.334 111.455 252.295 110.305 252.374 109.194C252.453 108.083 252.414 106.933 252.255 105.743C251.224 105.743 250.153 105.981 249.042 106.457C247.931 106.933 247.019 107.409 246.305 107.885V110.86C247.098 111.495 248.011 111.931 249.042 112.169C250.153 112.407 251.105 112.764 251.898 113.24ZM243.925 105.386L244.639 105.267C244.401 103.839 244.361 102.451 244.52 101.102C244.679 99.674 244.599 98.3253 244.282 97.056C243.33 96.6593 242.418 96.3817 241.545 96.223C240.672 95.985 239.839 95.628 239.046 95.152L238.451 95.628V102.887L239.046 103.482C239.839 103.879 240.633 104.196 241.426 104.434C242.299 104.593 243.132 104.91 243.925 105.386ZM262.013 100.15H262.37C263.005 99.8327 263.56 99.674 264.036 99.674C264.591 99.5947 265.147 99.3963 265.702 99.079L265.583 98.722C264.869 98.722 264.195 98.603 263.56 98.365C262.925 98.0477 262.33 97.9683 261.775 98.127C261.854 98.5237 261.854 98.9203 261.775 99.317C261.696 99.6343 261.775 99.912 262.013 100.15ZM268.677 98.127C269.391 97.651 270.145 97.3337 270.938 97.175C271.811 96.937 272.564 96.6197 273.199 96.223C269.55 94.9537 266.575 95.033 264.274 96.461C264.909 96.6197 265.583 96.8577 266.297 97.175C267.09 97.413 267.884 97.7303 268.677 98.127ZM243.925 95.033L244.639 94.795C244.401 93.367 244.361 91.9787 244.52 90.63C244.758 89.202 244.639 87.8533 244.163 86.584C243.29 86.1873 242.418 85.9097 241.545 85.751C240.672 85.5923 239.919 85.3147 239.284 84.918L238.451 85.037V92.534C238.768 93.0893 239.086 93.367 239.403 93.367C240.672 93.605 242.18 94.1603 243.925 95.033ZM262.013 95.033H262.37C263.322 94.557 264.195 94.2397 264.988 94.081C265.861 93.843 266.733 93.5257 267.606 93.129C267.923 82.1017 268.042 71.233 267.963 60.523C267.884 49.7337 267.844 38.865 267.844 27.917L267.368 27.798C266.495 28.3533 265.623 28.7103 264.75 28.869C263.877 29.0277 263.005 29.2657 262.132 29.583C261.894 40.6103 261.775 51.5583 261.775 62.427C261.775 73.2163 261.854 84.085 262.013 95.033ZM275.103 95.033L275.817 94.795C275.579 93.367 275.539 91.9787 275.698 90.63C275.936 89.202 275.777 87.8533 275.222 86.584C274.191 86.346 273.239 86.0287 272.366 85.632C271.493 85.2353 270.581 85.037 269.629 85.037V92.534L270.224 93.248C271.017 93.6447 271.811 93.9223 272.604 94.081C273.477 94.2397 274.31 94.557 275.103 95.033ZM243.925 84.68L244.639 84.323C244.401 82.895 244.361 81.5067 244.52 80.158C244.758 78.8093 244.639 77.4607 244.163 76.112C243.052 75.9533 241.981 75.6757 240.95 75.279C239.998 74.8823 239.165 74.684 238.451 74.684V82.062C238.689 82.538 239.006 82.8553 239.403 83.014C240.196 83.1727 240.95 83.4503 241.664 83.847C242.378 84.1643 243.132 84.442 243.925 84.68ZM275.103 84.68L275.817 84.085V77.064L275.222 76.35C274.429 75.9533 273.556 75.6757 272.604 75.517C271.731 75.279 270.938 74.922 270.224 74.446L269.629 74.803C269.708 76.231 269.708 77.6193 269.629 78.968C269.55 80.2373 269.629 81.467 269.867 82.657C270.819 83.133 271.692 83.49 272.485 83.728C273.358 83.8867 274.23 84.204 275.103 84.68ZM243.925 74.208L244.639 73.613V66.592L244.163 65.878C243.29 65.4813 242.418 65.164 241.545 64.926C240.672 64.688 239.919 64.4103 239.284 64.093L238.451 64.331V71.828C238.848 72.3833 239.165 72.7007 239.403 72.78C240.91 73.018 242.418 73.494 243.925 74.208ZM275.103 74.208L275.817 73.851C275.579 72.5023 275.539 71.1933 275.698 69.924C275.857 68.6547 275.777 67.3457 275.46 65.997C274.508 65.6797 273.596 65.3623 272.723 65.045C271.85 64.6483 271.017 64.331 270.224 64.093L269.629 64.331V71.828C270.026 72.3833 270.343 72.7007 270.581 72.78C271.533 72.8593 273.04 73.3353 275.103 74.208ZM244.163 63.974L244.639 63.379C244.401 61.951 244.361 60.642 244.52 59.452C244.679 58.1827 244.599 56.9133 244.282 55.644C243.33 55.2473 242.418 54.9697 241.545 54.811C240.672 54.573 239.839 54.216 239.046 53.74L238.451 54.097V61.475C239.244 62.189 240.157 62.665 241.188 62.903C242.299 63.141 243.29 63.498 244.163 63.974ZM275.103 63.974L275.817 63.617C275.579 62.189 275.539 60.8007 275.698 59.452C275.936 58.024 275.777 56.6753 275.222 55.406C274.191 55.2473 273.159 54.9697 272.128 54.573C271.176 54.097 270.343 53.859 269.629 53.859V61.356L270.224 62.07C271.017 62.4667 271.811 62.784 272.604 63.022C273.477 63.1807 274.31 63.498 275.103 63.974ZM243.925 53.502L244.639 53.383C244.401 51.955 244.361 50.5667 244.52 49.218C244.758 47.79 244.639 46.4413 244.163 45.172C243.29 44.7753 242.418 44.458 241.545 44.22C240.672 43.982 239.919 43.744 239.284 43.506L238.451 43.625V51.122C238.689 51.598 239.006 51.9153 239.403 52.074C240.91 52.2327 242.418 52.7087 243.925 53.502ZM275.103 53.502L275.817 53.145C275.579 51.717 275.539 50.408 275.698 49.218C275.857 47.9487 275.777 46.6397 275.46 45.291C274.508 44.9737 273.596 44.6563 272.723 44.339C271.85 44.0217 271.017 43.6647 270.224 43.268L269.629 43.625V51.122C269.867 51.598 270.184 51.9153 270.581 52.074C271.374 52.1533 272.128 52.3517 272.842 52.669C273.556 52.9863 274.31 53.264 275.103 53.502ZM244.163 43.268L244.639 42.673C244.401 41.3243 244.361 40.0153 244.52 38.746C244.679 37.4767 244.599 36.1677 244.282 34.819C243.33 34.343 242.418 34.0653 241.545 33.986C240.672 33.8273 239.839 33.51 239.046 33.034L238.451 33.391V40.888C239.244 41.5227 240.157 41.959 241.188 42.197C242.299 42.435 243.29 42.792 244.163 43.268ZM275.222 43.268L275.817 42.673C275.579 41.3243 275.539 40.0153 275.698 38.746C275.857 37.4767 275.777 36.1677 275.46 34.819C274.508 34.343 273.596 34.0653 272.723 33.986C271.85 33.8273 271.017 33.51 270.224 33.034L269.629 33.391V40.888C270.422 41.5227 271.335 41.959 272.366 42.197C273.477 42.435 274.429 42.792 275.222 43.268ZM245.353 33.391C245.988 32.915 246.741 32.5977 247.614 32.439C248.487 32.2803 249.24 31.963 249.875 31.487C249.002 31.1697 248.169 30.9317 247.376 30.773C246.662 30.6143 245.948 30.3367 245.234 29.94C244.441 30.3367 243.647 30.654 242.854 30.892C242.061 31.13 241.426 31.4077 240.95 31.725C241.585 31.8837 242.259 32.1217 242.973 32.439C243.687 32.677 244.48 32.9943 245.353 33.391ZM275.103 32.796L275.817 32.439V26.132L275.222 25.18C274.191 25.656 273.239 26.0527 272.366 26.37C271.493 26.608 270.581 26.965 269.629 27.441C269.708 27.9963 269.708 28.5517 269.629 29.107C269.55 29.6623 269.629 30.2177 269.867 30.773C270.819 31.249 271.692 31.606 272.485 31.844C273.358 32.0027 274.23 32.32 275.103 32.796ZM251.66 30.178L252.493 29.821C252.255 28.393 252.215 27.084 252.374 25.894C252.533 24.6247 252.414 23.3157 252.017 21.967C251.144 21.6497 250.272 21.3323 249.399 21.015C248.526 20.6977 247.693 20.3407 246.9 19.944L246.305 20.301V27.798C246.543 28.274 246.86 28.5913 247.257 28.75C248.05 28.8293 248.804 29.0277 249.518 29.345C250.232 29.6623 250.946 29.94 251.66 30.178ZM253.207 20.301C253.842 19.7457 254.556 19.468 255.349 19.468C256.222 19.3887 257.015 19.111 257.729 18.635C254.635 16.8897 251.66 16.969 248.804 18.873C249.915 18.9523 251.382 19.4283 253.207 20.301ZM285.456 19.944C287.36 19.23 288.51 18.873 288.907 18.873C288.51 18.4763 287.995 18.2383 287.36 18.159C286.805 18.0003 286.329 17.802 285.932 17.564L285.099 17.683C285.258 18.0797 285.258 18.516 285.099 18.992C285.02 19.468 285.139 19.7853 285.456 19.944ZM261.061 17.683C261.616 17.3657 262.37 17.088 263.322 16.85C264.353 16.612 265.107 16.2947 265.583 15.898C264.79 15.66 263.996 15.4617 263.203 15.303C262.41 15.065 261.696 14.7873 261.061 14.47C260.426 14.946 259.911 15.065 259.514 14.827C258.562 15.541 257.531 15.9377 256.42 16.017C257.213 16.4137 257.967 16.731 258.681 16.969C259.474 17.207 260.268 17.445 261.061 17.683ZM268.677 15.065C269.391 14.7477 270.145 14.5097 270.938 14.351C271.811 14.1923 272.564 13.8353 273.199 13.28C272.326 13.28 271.493 13.0817 270.7 12.685C269.986 12.2883 269.312 12.0503 268.677 11.971C268.122 12.0503 267.606 12.209 267.13 12.447C266.654 12.685 266.178 12.804 265.702 12.804C265.385 13.042 265.107 13.2007 264.869 13.28C264.631 13.28 264.433 13.3197 264.274 13.399C264.909 13.637 265.583 13.9147 266.297 14.232C267.011 14.47 267.804 14.7477 268.677 15.065ZM276.412 12.447C277.205 12.2883 277.999 12.0503 278.792 11.733C279.665 11.3363 280.498 11.019 281.291 10.781C280.418 10.6223 279.546 10.3843 278.673 10.067C277.88 9.74966 277.126 9.47199 276.412 9.234C275.619 9.63066 274.825 9.948 274.032 10.186C273.239 10.424 272.525 10.6223 271.89 10.781C272.683 11.0983 273.437 11.4157 274.151 11.733C274.865 11.971 275.619 12.209 276.412 12.447Z" fill="white"/>
</svg>
