<svg width="467" height="83" viewBox="0 0 467 83" fill="none" xmlns="http://www.w3.org/2000/svg">
<path d="M76 0.0439453L54.123 16.3965H0V16.3105L21.8184 0H76V0.0439453Z" fill="#D9D9D9"/>
<path d="M0.0517578 16.4971L19.5293 35.4824L19.5293 82.4502H19.4277L0 63.5156L0 16.4971H0.0517578Z" fill="#D9D9D9"/>
<path d="M53.7588 65.3311L76 81.9551V82H36.0928V65.3311H53.7588Z" fill="#D9D9D9"/>
<path d="M126.454 78.714C120.028 78.714 114.276 77.3257 109.199 74.549C104.201 71.7723 100.274 67.9643 97.4177 63.125C94.5617 58.2857 93.1337 52.7323 93.1337 46.465C93.1337 40.1977 94.5617 34.6443 97.4177 29.805C100.274 24.9657 104.201 21.1973 109.199 18.5C114.276 15.7233 120.028 14.335 126.454 14.335C132.166 14.335 137.243 15.4853 141.686 17.786C146.208 20.0073 149.698 23.3393 152.158 27.782L143.471 33.375C141.408 30.281 138.869 28.02 135.855 26.592C132.919 25.0847 129.746 24.331 126.335 24.331C122.209 24.331 118.52 25.2433 115.268 27.068C112.015 28.8927 109.437 31.471 107.533 34.803C105.629 38.0557 104.677 41.943 104.677 46.465C104.677 50.987 105.629 54.914 107.533 58.246C109.437 61.578 112.015 64.1563 115.268 65.981C118.52 67.8057 122.209 68.718 126.335 68.718C129.746 68.718 132.919 68.004 135.855 66.576C138.869 65.0687 141.408 62.768 143.471 59.674L152.158 65.148C149.698 69.5113 146.208 72.883 141.686 75.263C137.243 77.5637 132.166 78.714 126.454 78.714ZM166.948 78V14.93H177.896V32.066L176.825 27.782C178.57 23.4187 181.506 20.0867 185.631 17.786C189.756 15.4853 194.834 14.335 200.863 14.335V25.402C200.387 25.3227 199.911 25.283 199.435 25.283C199.038 25.283 198.642 25.283 198.245 25.283C192.136 25.283 187.297 27.1077 183.727 30.757C180.157 34.4063 178.372 39.682 178.372 46.584V78H166.948ZM249.446 78V64.672L248.851 62.173V39.444C248.851 34.6047 247.423 30.876 244.567 28.258C241.79 25.5607 237.585 24.212 231.953 24.212C228.224 24.212 224.575 24.8467 221.005 26.116C217.435 27.306 214.42 28.9323 211.961 30.995L207.201 22.427C210.453 19.809 214.341 17.8257 218.863 16.477C223.464 15.049 228.264 14.335 233.262 14.335C241.909 14.335 248.573 16.4373 253.254 20.642C257.934 24.8467 260.275 31.2727 260.275 39.92V78H249.446ZM228.74 78.714C224.059 78.714 219.934 77.9207 216.364 76.334C212.873 74.7473 210.176 72.5657 208.272 69.789C206.368 66.933 205.416 63.72 205.416 60.15C205.416 56.7387 206.209 53.6447 207.796 50.868C209.462 48.0913 212.119 45.87 215.769 44.204C219.497 42.538 224.495 41.705 230.763 41.705H250.755V49.916H231.239C225.527 49.916 221.679 50.868 219.696 52.772C217.712 54.676 216.721 56.9767 216.721 59.674C216.721 62.768 217.95 65.267 220.41 67.171C222.869 68.9957 226.28 69.908 230.644 69.908C234.928 69.908 238.656 68.956 241.83 67.052C245.082 65.148 247.423 62.3713 248.851 58.722L251.112 66.576C249.604 70.3047 246.947 73.2797 243.139 75.501C239.331 77.643 234.531 78.714 228.74 78.714ZM360.313 14.335C365.39 14.335 369.873 15.3267 373.76 17.31C377.647 19.2933 380.662 22.308 382.804 26.354C385.025 30.4 386.136 35.517 386.136 41.705V78H374.712V43.014C374.712 36.9053 373.284 32.304 370.428 29.21C367.572 26.116 363.566 24.569 358.409 24.569C354.601 24.569 351.269 25.3623 348.413 26.949C345.557 28.5357 343.336 30.876 341.749 33.97C340.242 37.064 339.488 40.9117 339.488 45.513V78H328.064V43.014C328.064 36.9053 326.636 32.304 323.78 29.21C321.003 26.116 316.997 24.569 311.761 24.569C308.032 24.569 304.74 25.3623 301.884 26.949C299.028 28.5357 296.807 30.876 295.22 33.97C293.633 37.064 292.84 40.9117 292.84 45.513V78H281.416V14.93H292.364V31.709L290.579 27.425C292.562 23.2997 295.617 20.0867 299.742 17.786C303.867 15.4853 308.667 14.335 314.141 14.335C320.17 14.335 325.367 15.8423 329.73 18.857C334.093 21.7923 336.949 26.2747 338.298 32.304L333.657 30.4C335.561 25.5607 338.893 21.6733 343.653 18.738C348.413 15.8027 353.966 14.335 360.313 14.335ZM434.169 78.714C427.822 78.714 422.19 77.3257 417.271 74.549C412.352 71.7723 408.465 67.9643 405.609 63.125C402.753 58.2063 401.325 52.653 401.325 46.465C401.325 40.1977 402.753 34.6443 405.609 29.805C408.465 24.9657 412.352 21.1973 417.271 18.5C422.19 15.7233 427.822 14.335 434.169 14.335C440.436 14.335 446.029 15.7233 450.948 18.5C455.946 21.1973 459.833 24.9657 462.61 29.805C465.466 34.565 466.894 40.1183 466.894 46.465C466.894 52.7323 465.466 58.2857 462.61 63.125C459.833 67.9643 455.946 71.7723 450.948 74.549C446.029 77.3257 440.436 78.714 434.169 78.714ZM434.169 68.718C438.215 68.718 441.825 67.8057 444.998 65.981C448.251 64.1563 450.789 61.578 452.614 58.246C454.439 54.8347 455.351 50.9077 455.351 46.465C455.351 41.943 454.439 38.0557 452.614 34.803C450.789 31.471 448.251 28.8927 444.998 27.068C441.825 25.2433 438.215 24.331 434.169 24.331C430.123 24.331 426.513 25.2433 423.34 27.068C420.167 28.8927 417.628 31.471 415.724 34.803C413.82 38.0557 412.868 41.943 412.868 46.465C412.868 50.9077 413.82 54.8347 415.724 58.246C417.628 61.578 420.167 64.1563 423.34 65.981C426.513 67.8057 430.123 68.718 434.169 68.718Z" fill="white"/>
</svg>
