<?xml version="1.0" encoding="UTF-8"?>
<svg id="Layer_1" data-name="Layer 1" xmlns="http://www.w3.org/2000/svg" viewBox="0 0 1384.27 1180.39">
  <path d="M1243.84,136.75v173.6h-518.21l-172.31-173.6h690.52ZM725.63,569.46h518.21v172.31h-690.52v-172.31h172.31ZM725.63,999.58h518.21v173.6h-690.52v-14.25l172.31-159.35Z" fill="#fff" stroke="#231f20" stroke-miterlimit="10" stroke-width="14"/>
  <path d="M307.08,741.82c-83.71,0-154.55-29.81-212.5-88.13C36.62,594.08,7,522.8,7,438.56s29.62-152.93,87.58-212.54c57.96-59.62,128.79-89.42,212.5-89.42v173.66c-18.03,0-34.77,2.59-50.23,9.07-16.74,6.48-29.62,15.55-42.5,28.51-11.59,11.66-20.61,25.92-27.05,41.47-6.44,15.55-9.02,32.4-9.02,49.25,0,36.29,11.59,66.1,36.06,92.02,25.76,25.92,55.38,38.88,92.73,38.88h256.29c83.71,0,154.55,29.81,212.5,88.13,59.24,59.62,88.86,130.9,88.86,213.84s-29.62,154.23-88.86,213.84c-57.96,58.32-128.79,88.13-212.5,88.13v-173.67c18.03,0,34.77-2.59,50.23-9.07,16.74-6.48,30.91-15.55,42.5-27.22,11.59-11.66,20.61-24.62,27.05-41.47,6.44-15.55,10.3-32.4,10.3-50.54,0-34.99-14.17-64.8-38.64-90.72-25.76-25.92-55.38-38.88-91.44-38.88h-256.29Z" fill="#fff" stroke="#231f20" stroke-miterlimit="10" stroke-width="14"/>
</svg>